<mxfile host="app.diagrams.net" modified="2024-05-20T14:15:48.613Z" agent="Mozilla/5.0 (Windows NT 10.0; Win64; x64) AppleWebKit/537.36 (KHTML, like Gecko) Chrome/124.0.0.0 Safari/537.36" version="24.4.4" etag="l9-5EFHH2g8-AUA2vSFA" type="github">
  <diagram name="Page-1" id="ezkTfnReteIlTnx8hskp">
    <mxGraphModel>
      <root>
        <mxCell id="0" />
        <mxCell id="1" parent="0" />
      </root>
    </mxGraphModel>
  </diagram>
</mxfile>
